<svg width="12" height="24" viewBox="0 0 12 24" fill="none" xmlns="http://www.w3.org/2000/svg">
<path fill-rule="evenodd" clip-rule="evenodd" d="M1.42196 14.8007H1.43898C2.33656 14.8007 2.89427 14.1745 2.89356 13.4003C2.87725 12.6045 2.33584 12 1.45529 12C0.57545 12 0 12.6045 0 13.4003C0 14.1745 0.558426 14.8007 1.42196 14.8007ZM0.154707 24H2.72681H2.72685V15.9051H0.154707V24ZM12 24H9.43284V19.6705C9.43284 18.5825 9.05537 17.8345 8.12442 17.8345C7.4099 17.8345 6.99197 18.3381 6.8082 18.8268C6.74079 18.9927 6.72305 19.2356 6.72305 19.4792V24H4.14948C4.14948 24 4.18211 16.6628 4.14948 15.9051H6.72305V17.0529C7.06081 16.5021 7.67245 15.7138 9.03831 15.7138C10.7327 15.7138 12 16.8713 12 19.3581V24ZM6.78213 17.0677C6.75105 17.0976 6.73917 17.1249 6.73197 17.1522H6.78213V17.0677Z" fill="white"/>
<path fill-rule="evenodd" clip-rule="evenodd" d="M1.42196 2.80069H1.43898C2.33656 2.80069 2.89427 2.17449 2.89356 1.40034C2.87725 0.604514 2.33584 0 1.45529 0C0.57545 0 0 0.604514 0 1.40034C0 2.17449 0.558426 2.80069 1.42196 2.80069ZM0.154707 12H2.72681H2.72685V3.90511H0.154707V12ZM12 12H9.43284V7.67048C9.43284 6.58248 9.05537 5.83451 8.12442 5.83451C7.4099 5.83451 6.99197 6.33813 6.8082 6.82683C6.74079 6.99271 6.72305 7.23556 6.72305 7.47916V12H4.14948C4.14948 12 4.18211 4.6628 4.14948 3.90507H6.72305V5.05285C7.06081 4.50212 7.67245 3.7138 9.03831 3.7138C10.7327 3.7138 12 4.87129 12 7.35809V12ZM6.78213 5.06773C6.75105 5.09755 6.73917 5.12487 6.73197 5.15219H6.78213V5.06773Z" fill="#222E3A"/>
</svg>
