<svg xmlns="http://www.w3.org/2000/svg" width="12" height="24" fill="none" viewBox="0 0 12 24"><path fill="#fff" d="M9.2364 12.0025L7.55742 12c-1.88628 0-3.10528 1.1591-3.10528 2.9532v1.3616H2.764c-.14587 0-.264.1097-.264.2449v1.9728c0 .1352.11826.2447.264.2447h1.68814v4.9781c0 .1352.11813.2447.26401.2447h2.20254c.14588 0 .26401-.1096.26401-.2447v-4.9781h1.97383c.14587 0 .264-.1095.264-.2447l.00081-1.9728c0-.065-.02788-.1271-.07732-.1731-.04943-.0459-.11678-.0718-.18682-.0718H7.1827v-1.1542c0-.5548.14264-.8365.92239-.8365l1.13104-.0003c.14574 0 .26387-.1096.26387-.2447v-1.8319c0-.135-.11799-.2445-.2636-.2447z"/><path fill="#222E3A" d="M9.2364.0024968L7.55742 0C5.67114 0 4.45214 1.15914 4.45214 2.95322v1.36163H2.764c-.14587 0-.264.10961-.264.24481v1.97285c0 .1352.11826.24468.264.24468h1.68814v4.97811c0 .1352.11813.2447.26401.2447h2.20254c.14588 0 .26401-.1096.26401-.2447V6.77719h1.97383c.14587 0 .264-.10948.264-.24468l.00081-1.97285c0-.06492-.02788-.12709-.07732-.17303-.04943-.04594-.11678-.07178-.18682-.07178H7.1827V3.16058c0-.55479.14264-.83643.92239-.83643l1.13104-.00038c.14574 0 .26387-.10961.26387-.24468V.247183c0-.134952-.11799-.24443652-.2636-.2446862z"/></svg>
