<svg width="922" height="192" viewBox="0 0 922 192" fill="none" xmlns="http://www.w3.org/2000/svg">
<g clip-path="url(#clip0_4_40)">
<path d="M88.5426 188.336H85.5453L0 0.115723H45.7733L88.5426 99.2904L131.689 0.115723H174.085L88.5426 188.336Z" fill="white"/>
<path d="M331.525 0.114258H374.796V115.265V187.334H331.525V50.5996V0.114258Z" fill="white"/>
<path d="M422.831 0.11377H379.561V187.334H422.831V0.11377Z" fill="#00BDAE"/>
<path d="M446.074 187.517V0.114746H494.282C509.099 0.114746 520.859 1.19475 529.565 3.34668C538.265 5.50268 545.978 9.12004 552.701 14.2027C559.677 19.2894 565.085 25.6401 568.917 33.2654C572.749 40.8934 574.667 48.9694 574.667 57.5014C574.667 76.456 567.929 91.4893 554.442 102.604C540.958 113.72 522.669 119.276 499.579 119.276C497.167 119.276 495.358 119.257 494.153 119.213C492.945 119.169 491.827 119.105 490.791 119.02V187.517H446.074ZM496.867 34.4947H490.791V84.5107H498.935C510.219 84.5107 518.837 82.3374 524.782 77.9827C530.729 73.6347 533.699 67.3654 533.699 59.18C533.699 50.652 530.77 44.4027 524.91 40.4387C519.051 36.4747 509.705 34.4947 496.867 34.4947Z" fill="white"/>
<path d="M287.556 141.774C278.712 145.489 269.843 147.348 260.959 147.348C245.934 147.348 233.735 142.362 224.367 132.384C214.992 122.408 210.31 109.38 210.31 93.305C210.31 77.2304 215.036 64.061 224.488 53.8023C233.938 43.545 246.095 38.413 260.959 38.413C269.52 38.413 277.699 40.3117 285.495 44.109C293.142 47.833 300.691 53.5116 308.143 61.1223V13.4637C301.479 9.44768 294.559 6.32096 287.376 4.12102C278.41 1.37703 268.999 0.000976562 259.142 0.000976562C246.7 0.000976562 234.864 2.32503 223.638 6.97038C212.407 11.6143 202.514 18.297 193.95 27.025C185.466 35.7476 179.004 45.8037 174.563 57.1956C170.119 68.5863 167.896 80.7823 167.896 93.7877C167.896 108.897 170.91 122.853 176.927 135.654C182.942 148.458 191.606 159.305 202.919 168.19C210.914 174.492 219.659 179.257 229.152 182.486C238.64 185.717 248.559 187.336 258.898 187.336C268.511 187.336 277.783 186.002 286.707 183.338C294.386 181.042 301.511 177.798 308.143 173.708V129.729C301.294 134.862 294.43 138.886 287.556 141.774Z" fill="white"/>
<path d="M611.576 0H673.773C684.488 0 692.85 0.52344 699.384 1.56771C705.656 2.875 711.143 4.70443 715.847 7.57812C730.221 15.6797 738.583 30.5755 738.583 48.0846C738.583 66.901 728.653 81.5351 710.621 88.5911C721.858 90.944 731.005 96.6927 737.539 105.316C744.071 113.941 747.208 124.656 747.208 137.199C747.208 158.891 736.231 176.138 717.677 183.716C713.757 185.285 708.269 186.329 700.69 186.853C692.85 187.637 680.567 187.898 663.58 187.898H611.576V0ZM669.069 83.3646C688.407 83.3646 701.997 80.7513 709.575 75.5247C717.155 70.2982 720.812 61.4128 720.812 49.1302C720.812 36.8477 717.155 28.224 709.837 22.9974C702.519 18.0326 689.453 15.4193 670.638 15.4193H628.824V83.3646H669.069ZM679.523 172.479C698.338 172.479 711.143 169.604 718.461 164.117C725.778 158.629 729.437 149.482 729.437 136.415C729.437 110.805 712.974 98 680.829 98H628.824V172.479L679.523 172.479Z" fill="#00BDAE"/>
<path d="M764.717 0H780.397V23.5195H764.717V0ZM764.717 52.2669H780.397V187.898H764.717V52.2669Z" fill="#00BDAE"/>
<path d="M812.8 172.741C802.086 160.458 796.599 142.949 796.599 120.213C796.599 97.4764 802.086 79.9673 812.8 67.4243C823.515 55.1405 838.935 48.8696 858.795 48.8696C878.656 48.8696 893.813 55.1405 904.79 67.4243C915.765 79.9673 921.254 97.4764 921.254 120.213C921.254 142.687 915.765 160.196 905.052 172.741C894.075 185.023 878.656 191.295 858.795 191.295C838.935 191.295 823.515 185.023 812.8 172.741ZM892.768 162.81C900.609 153.14 904.79 138.767 904.79 120.213C904.79 101.919 900.609 87.5467 892.768 77.6157C884.928 67.9465 873.691 62.7199 858.795 62.7199C844.161 62.7199 832.924 67.6847 824.823 77.6157C816.721 87.8071 812.8 101.919 812.8 120.213C812.8 138.506 816.721 152.618 824.823 162.548C832.924 172.741 844.161 177.706 858.795 177.706C873.691 177.706 884.928 172.479 892.768 162.81Z" fill="#00BDAE"/>
</g>
<defs>
<clipPath id="clip0_4_40">
<rect width="921.254" height="191.296" fill="white"/>
</clipPath>
</defs>
</svg>
