<svg width="193" height="63" viewBox="0 0 193 63" fill="none" xmlns="http://www.w3.org/2000/svg">
<path d="M149.217 0.331086C149.392 0.319137 149.568 0.30958 149.744 0.302419C150.869 0.2596 152.223 0.31207 153.369 0.313737L160.697 0.315015C169.438 0.315649 179.483 -0.264072 186.289 6.13503C189.048 8.60691 190.455 10.9851 191.463 14.5158C192.509 18.1767 192.416 19.8118 191.799 23.4694C189.956 34.4021 179.43 39.5121 169.231 39.8359C167.914 39.9196 165.389 39.9239 164.079 39.8301L164.086 62.5772L154.695 62.5834C152.802 62.5841 150.812 62.624 148.933 62.4945C148.987 57.7333 148.934 52.8569 148.933 48.0885L148.932 19.5081L148.933 7.28251C148.934 5.18282 148.916 3.04015 148.962 0.939108C148.97 0.605674 149.024 0.537058 149.217 0.331086ZM164.073 28.31C167.684 28.3555 172.786 28.2882 175.746 25.8385C177.564 24.2101 178.251 22.5509 178.363 20.1486C178.448 18.3488 177.995 16.2126 176.731 14.8733C173.734 11.6994 168.086 11.6755 164.08 11.6916L164.092 22.4679C164.092 24.2499 164.161 26.578 164.073 28.31Z" fill="#1A4145"/>
<path d="M85.4488 0.133367C85.4738 0.128369 85.5282 0.118727 85.5525 0.119025C90.724 0.182628 98.4236 1.67892 102.41 4.81208C102.58 9.62378 102.437 15.5693 102.423 20.4387C101.701 19.9351 100.447 18.7158 99.6775 18.1075C96.7207 15.7025 93.9229 14.1903 90.1859 13.4545C80.6511 11.5773 72.2041 16.9182 70.1985 26.5476C68.2123 36.0834 72.3037 46.596 82.6313 48.6909C90.0709 50.2 96.3385 47.3864 102.425 43.4095C102.406 44.4658 102.433 45.5889 102.439 46.6504C102.416 50.3679 102.501 54.184 102.414 57.8904C99.5786 60.3868 92.5907 61.9347 88.8919 62.3235C71.9886 64.1003 56.7291 51.504 55.5792 34.4518C54.9533 25.1696 56.9449 17.0393 63.4165 9.9712C69.4502 3.38147 76.6185 0.772791 85.4488 0.133367Z" fill="#1A4145"/>
<path d="M110.208 0.24353C115.165 0.344847 120.124 0.351629 125.081 0.263869L125.087 62.4819C120.217 62.4724 114.974 62.588 110.136 62.4423C110.312 57.4604 110.16 51.592 110.16 46.5114L110.16 15.6051L110.158 6.09114C110.158 4.21724 110.113 2.0958 110.208 0.24353Z" fill="#1A4145"/>
<path d="M128.072 0C133.029 0.101317 137.988 0.108099 142.945 0.0203391L142.951 62.2384C138.081 62.2288 132.838 62.3445 128 62.1987C128.176 57.2169 128.024 51.3485 128.024 46.2678L128.024 15.3616L128.022 5.84761C128.022 3.97371 127.977 1.85227 128.072 0Z" fill="#00FFBB"/>
<path d="M43.5 0H57.5L28.5 63L0 0H14.5L29 33L43.5 0Z" fill="#1A4145"/>
</svg>
