<svg xmlns="http://www.w3.org/2000/svg" width="441" height="142" fill="none" viewBox="0 0 441 142">
  <path fill="#212248" d="M112.499 96.098V48.582h14.933L141.238 74V48.582h13.734v47.516H140.77L126.233 70.14v25.958h-13.734zM195.6 78.785c0 5.154-1.497 9.374-4.49 12.661-3.394 3.688-8.13 5.532-14.207 5.533-6.077.002-10.811-1.843-14.2-5.533-2.995-3.287-4.493-7.507-4.492-12.66.001-5.155 1.498-9.374 4.492-12.66 3.35-3.643 8.083-5.465 14.2-5.466 6.117-.001 10.852 1.82 14.207 5.466 2.992 3.29 4.489 7.51 4.49 12.66zm-13.1 0c0-5.682-1.867-8.524-5.6-8.524-3.733 0-5.6 2.842-5.6 8.524 0 5.73 1.867 8.594 5.6 8.594 3.733 0 5.6-2.865 5.6-8.594zM197.78 96.1V61.54h12.551v5.54h.131c2.2-4.28 5.416-6.42 9.646-6.419 1.296.01 2.584.19 3.833.534V72.87a14.433 14.433 0 00-5.151-.93c-5.274 0-7.911 3.494-7.911 10.481V96.1H197.78z"/>
  <path fill="#212248" d="M239.929 51.06v10.48h7v8.16h-7v12.044a5.59 5.59 0 00.79 3.463c.577.752 1.656 1.13 3.239 1.131.994.002 1.987-.074 2.97-.226V96.1c-.88 0-2.268.067-4.164.2s-3.306.2-4.23.2c-3.573 0-6.217-.531-7.934-1.594-2.514-1.594-3.771-4.499-3.77-8.714V69.7h-5.794v-8.16h5.794v-10.48l13.099.001zM248.044 96.099V48.582h13.1v16.717c2.616-3.093 6.21-4.64 10.782-4.64 3.012-.111 5.957.91 8.252 2.865 2.395 2.133 3.592 5.086 3.592 8.859v23.716h-13.1v-18.15a12.059 12.059 0 00-.726-4.939 3.6 3.6 0 00-3.568-1.869c-3.489 0-5.232 2.225-5.23 6.676v18.282h-13.102zM303.155 51.06v10.48h7v8.16h-7v12.044a5.541 5.541 0 00.792 3.463c.574.752 1.652 1.13 3.234 1.131.996.002 1.99-.074 2.974-.226V96.1c-.884 0-2.269.065-4.167.2-1.898.135-3.307.2-4.228.2-3.574 0-6.219-.531-7.935-1.594-2.513-1.594-3.768-4.499-3.766-8.714V69.7h-5.8v-8.16h5.8v-10.48l13.096.001z"/>
  <path fill="#212248" d="M347.008 78.785c0 5.154-1.5 9.374-4.5 12.661-3.388 3.688-8.122 5.532-14.2 5.533-6.078.002-10.813-1.843-14.205-5.533-2.994-3.287-4.492-7.507-4.492-12.66 0-5.155 1.498-9.374 4.492-12.66 3.348-3.643 8.083-5.465 14.205-5.466 6.123-.001 10.856 1.82 14.2 5.466 3 3.29 4.5 7.51 4.5 12.66zm-13.1 0c0-5.682-1.866-8.524-5.6-8.524-3.733 0-5.6 2.842-5.6 8.524 0 5.73 1.867 8.594 5.6 8.594 3.734 0 5.6-2.865 5.6-8.594zM404.306 61.54l-10.9 34.558h-13.413l-4.95-21.28h-.134l-5.086 21.28h-13.409L345.712 61.54h13.607l5.089 21.359h.131l4.358-21.359h12.223l4.552 21.359h.267l4.759-21.359h13.608zM404.336 96.1V61.54h12.615v4.4h.131c2.47-3.52 6.201-5.28 11.192-5.28a11.928 11.928 0 018.207 2.865c2.386 2.133 3.578 5.086 3.577 8.86v23.714h-13.1V77.95a12.01 12.01 0 00-.729-4.939 3.597 3.597 0 00-3.576-1.869c-3.481 0-5.221 2.225-5.22 6.676v18.282h-13.097zM.62 95.947h97.205V.384H.62v95.563zm87.75-9.3H10.075V9.679H88.37v76.968z"/>
  <path fill="#4CC0B0" d="M67.444 133.606L38.785 95.947V48.612l28.66 37.661v47.333z"/>
  <path fill="#212248" d="M249.029 109.545h10.143l5.197 20.082 5.575-20.082h9.744l-10.394 31.104h-9.87l-10.395-31.104zM293.289 109.545h-10.101v31.104h10.101v-31.104zM299.325 140.649v-31.104h9.912v22.848h13.475v8.256h-23.387zM326.757 140.649v-31.1h9.409l8.655 14.465a10.4 10.4 0 01.849 1.731c.301.746.619 1.646.954 2.7a20.811 20.811 0 01-.188-1.816 41.268 41.268 0 01-.064-2.407v-14.677h9.451v31.1h-9.451l-8.655-14.359a11.926 11.926 0 01-.869-1.795 37.75 37.75 0 01-.954-2.66c.1.57.17 1.144.21 1.721.042.6.063 1.441.062 2.523v14.57l-9.409.004zM371.96 109.545h-10.101v31.104h10.101v-31.104zM377.912 109.545h9.912v19.173a5.331 5.331 0 001.1 3.791 5 5 0 003.677 1.13 4.866 4.866 0 003.594-1.109 5.388 5.388 0 001.08-3.812v-19.173h9.912v19.954c0 3.899-1.247 6.877-3.741 8.932-2.494 2.055-6.109 3.083-10.846 3.084-4.764 0-8.404-1.031-10.919-3.094-2.515-2.063-3.772-5.036-3.771-8.921l.002-19.955zM411.526 130.957h9.641a3.93 3.93 0 001.445 2.429 5.426 5.426 0 003.123.738 5.287 5.287 0 002.734-.6 1.857 1.857 0 00.995-1.658c0-1.126-1.389-2.041-4.169-2.745-.558-.141-.985-.247-1.279-.317-2.277-.591-4.09-1.13-5.438-1.615a13.735 13.735 0 01-2.945-1.362 8.413 8.413 0 01-2.671-3.083 9.112 9.112 0 01-.891-4.1 8.645 8.645 0 01.831-4.059 8.648 8.648 0 012.627-3.204c2.305-1.76 5.477-2.64 9.515-2.64 3.966 0 7.089.841 9.367 2.524a9.63 9.63 0 013.855 7.232h-9.409a2.954 2.954 0 00-1.205-2.048 4.828 4.828 0 00-2.776-.676 4.256 4.256 0 00-2.369.528 1.812 1.812 0 00-.775 1.6c0 1.027 1.355 1.886 4.065 2.576.238.07.419.119.545.147.391.099.985.247 1.782.444 3.59.915 5.937 1.745 7.041 2.491a8.92 8.92 0 013 3.126 8.596 8.596 0 01.943 4.139 9.41 9.41 0 01-3.573 7.918c-2.382 1.844-5.794 2.766-10.237 2.766-4.094 0-7.339-.922-9.735-2.766a10.514 10.514 0 01-2.87-3.454 10.512 10.512 0 01-1.164-4.338"/>
</svg>
