<svg width="1066" height="192" viewBox="0 0 1066 192" fill="none" xmlns="http://www.w3.org/2000/svg">
<g clip-path="url(#clip0_4_8)">
<path d="M88.5426 188.335H85.5453L0 0.114746H45.7733L88.5426 99.2895L131.689 0.114746H174.085L88.5426 188.335Z" fill="#212248"/>
<path d="M331.525 0.113281H374.796V115.264V187.333H331.525V50.5986V0.113281Z" fill="#212248"/>
<path d="M422.831 0.113281H379.56V187.333H422.831V0.113281Z" fill="#6C8DFD"/>
<path d="M446.074 187.517V0.114258H494.282C509.099 0.114258 520.859 1.19426 529.565 3.34619C538.265 5.50219 545.978 9.11955 552.701 14.2022C559.677 19.2889 565.085 25.6396 568.917 33.2649C572.749 40.8929 574.667 48.9689 574.667 57.5009C574.667 76.4556 567.929 91.4889 554.442 102.604C540.958 113.72 522.669 119.276 499.579 119.276C497.167 119.276 495.358 119.257 494.153 119.213C492.945 119.169 491.827 119.105 490.791 119.02V187.517H446.074ZM496.867 34.4942H490.791V84.5102H498.935C510.219 84.5102 518.837 82.3369 524.782 77.9822C530.729 73.6342 533.699 67.3649 533.699 59.1795C533.699 50.6515 530.77 44.4022 524.91 40.4382C519.051 36.4742 509.705 34.4942 496.867 34.4942Z" fill="#212248"/>
<path d="M287.556 141.773C278.712 145.488 269.843 147.347 260.959 147.347C245.934 147.347 233.735 142.361 224.367 132.383C214.992 122.407 210.31 109.379 210.31 93.304C210.31 77.2294 215.036 64.0601 224.488 53.8014C233.938 43.544 246.095 38.412 260.959 38.412C269.52 38.412 277.699 40.3107 285.495 44.108C293.142 47.832 300.691 53.5107 308.143 61.1213V13.4627C301.479 9.44671 294.559 6.31999 287.376 4.12004C278.41 1.37607 268.999 0 259.142 0C246.7 0 234.864 2.32405 223.638 6.9694C212.407 11.6134 202.514 18.2961 193.95 27.024C185.466 35.7467 179.004 45.8027 174.563 57.1947C170.119 68.5854 167.896 80.7813 167.896 93.7867C167.896 108.896 170.91 122.852 176.927 135.653C182.942 148.457 191.606 159.304 202.919 168.189C210.914 174.491 219.659 179.256 229.152 182.485C238.64 185.716 248.559 187.335 258.898 187.335C268.511 187.335 277.783 186.001 286.707 183.337C294.386 181.041 301.511 177.797 308.143 173.707V129.728C301.294 134.861 294.43 138.885 287.556 141.773Z" fill="#212248"/>
<path d="M649.965 15.418H591.688V0H726.013V15.418H667.735V187.897H649.965V15.418Z" fill="#6C8DFD"/>
<path d="M719.479 172.741C709.026 160.197 703.799 142.948 703.799 120.736C703.799 98.2606 709.026 80.4897 719.479 67.6851C730.194 55.1408 744.828 48.8687 763.383 48.8687C781.676 48.8687 795.788 54.8791 805.98 66.9012C816.172 79.1837 821.137 96.1694 821.137 117.861V123.087H719.74V123.871C719.74 140.597 723.66 153.663 731.762 163.332C739.863 173.263 750.577 178.228 763.905 178.228C774.62 178.228 783.505 175.353 790.561 169.604C797.617 163.856 802.06 156.014 803.628 146.085H819.308C817.478 159.935 811.729 170.912 801.537 179.274C791.345 187.375 778.54 191.556 762.86 191.556C744.306 191.556 729.932 185.284 719.479 172.741ZM792.913 75.2632C785.335 66.6395 775.404 62.4585 763.121 62.4585C750.577 62.4585 740.647 66.9012 732.807 75.5249C724.967 84.1486 720.785 95.6473 720.002 110.281L804.934 110.543C804.412 95.6473 800.231 83.8869 792.913 75.2632Z" fill="#6C8DFD"/>
<path d="M845.964 172.479C835.25 159.935 830.023 142.688 830.023 120.996C830.023 98.5223 835.511 81.0132 846.225 67.9468C856.94 55.1408 871.574 48.8687 890.39 48.8687C905.548 48.8687 918.092 53.0496 928.022 61.6746C937.692 70.2983 943.18 81.5353 943.964 95.3856H928.806C927.5 85.7163 923.319 77.616 916.263 71.6043C909.207 65.5939 900.582 62.7189 890.39 62.7189C876.801 62.7189 866.087 67.6851 858.247 77.8765C850.145 88.0692 846.225 102.181 846.225 119.69C846.225 137.722 850.145 151.833 858.247 162.287C866.348 172.741 877.063 177.968 890.652 177.968C901.105 177.968 909.99 174.569 917.046 168.037C924.102 161.503 928.284 152.617 930.113 141.119H945.793C944.486 156.538 938.737 168.82 928.545 177.968C918.353 186.852 905.287 191.294 889.345 191.294C870.791 191.294 856.417 185.022 845.964 172.479Z" fill="#6C8DFD"/>
<path d="M958.858 0H974.799V73.4336C984.991 56.9701 999.887 48.8685 1019.49 48.8685C1037.52 48.8685 1052.41 56.1862 1059.99 67.9466C1061.82 71.082 1063.39 75.0013 1064.17 79.7057C1064.96 84.4102 1065.48 92.7721 1065.48 105.316V187.897H1049.54V105.578C1049.54 88.8529 1047.19 77.3542 1042.22 71.6042C1037.52 65.8555 1028.89 62.9805 1016.35 62.9805C1003.55 62.9805 993.615 67.1615 986.036 75.263C978.458 83.1029 974.799 94.0794 974.799 107.93V187.897H958.858V0Z" fill="#6C8DFD"/>
</g>
<defs>
<clipPath id="clip0_4_8">
<rect width="1065.48" height="191.556" fill="white"/>
</clipPath>
</defs>
</svg>
